<svg version="1" xmlns="http://www.w3.org/2000/svg" width="853.333" height="853.333" viewBox="0 0 640.000000 640.000000"><path d="M266 22.4c-26.1 11.6-39.8 19-58.8 31.8-20.7 14-47.1 38-61.2 55.7-1.9 2.4-4 4.8-4.5 5.5-.6.6-3.4 4.2-6.3 8.1-2.8 3.8-5.5 7.4-6 8-.4.5-3.9 5.9-7.7 12-8.5 13.6-16.9 29.6-23.1 44-4.4 10.4-13.8 37.4-14.7 42.6-.3 1.3-1.2 5.1-2 8.4-1.8 6.9-4.3 20.6-5.2 28-.4 2.7-.8 6.1-1 7.4-2.4 14.5-2.3 59.7.1 71.4.2 1.2.7 4.7 1 7.6.3 3 .8 5.9 1 6.3.3.5.7 2.6.9 4.8 1 10.2 11.6 47.1 17.1 59.5 1 2.2 1.8 4.2 1.9 4.5.8 3.4 14.5 30.8 19 37.9 1.4 2.3 2.5 4.2 2.5 4.5 0 .4 11.2 17.2 12.7 19.1.5.5 2 2.6 3.3 4.5 1.3 1.9 2.9 4 3.5 4.6.5.6 2.1 2.6 3.5 4.4 1.4 1.8 3.6 4.5 5 6s4.9 5.5 7.9 9c14.6 16.7 43.8 41.2 61.3 51.5 1 .5 5.3 3.1 9.5 5.7 31.7 18.9 76 34.8 110 39.4 2.6.3 5.6.8 6.6 1 1 .2 4.8.6 8.5.9 3.7.3 9.2.8 12.2 1.1 7.7.7 31.9.7 41.5-.1 12.7-1 21.2-2.1 32.5-4.1 25.3-4.6 54.4-13.9 80.4-25.8 2.8-1.3 7.2-3.2 9.8-4.2 2.7-1.1 4.8-2.4 4.8-3.1 0-1-11-27.4-15.4-36.8-2.3-4.9-5.2-11.6-8.1-18.5-2.7-6.5-4.5-10.6-9.1-20.8-1.3-2.9-2.4-5.4-2.4-5.6 0-.2-1-2.5-2.2-5.2-1.2-2.7-2.3-5.1-2.3-5.4-.1-.3-1-2.5-2.2-5-3.8-8.2-10.3-23.9-10.2-24.7 0-.4 4.3-3.9 9.5-7.7 20.2-14.8 37.6-35.1 50.2-58.6 7.8-14.5 15.7-37.2 17.7-50.5.3-2.3.8-5.2 1-6.5 1-4.9 1.8-16.7 1.8-26.5.1-27.4-5.8-52.6-18.3-78.2-4.9-10.1-15.5-27.4-17.9-29.3-.3-.3-1.9-2.3-3.5-4.4-3.1-4.1-16.4-17.8-22.8-23.3-4.5-4-20.4-15.3-21.4-15.3-.4 0-1.5-.6-2.3-1.4-2.6-2.3-21-11.1-30.1-14.4-10.4-3.8-22-7-28-7.8-2.5-.3-4.8-.8-5.1-1-1.5-.9-17.8-1.9-29.9-1.8-15.1.1-23.7.9-34.5 3.4-5.2 1.2-7.5 1.2-7.5 0 0-.5-1.1-3.4-2.5-6.4-2.3-5-4.6-10.3-5-11.6-.1-.3-1.1-2.7-2.3-5.3-1.2-2.7-2.2-5-2.2-5.3 0-.2-1.3-3.1-2.9-6.4-1.6-3.3-2.7-6-2.4-6 .2 0-.4-1.5-1.5-3.3-1.2-1.7-2-3.4-2-3.7 0-.3-.8-2.5-1.9-5-1.1-2.5-6.2-14.2-11.3-26-17.3-40.2-18.1-42-19.4-41.9-.6 0-9.4 3.8-19.6 8.3zm-8 71.7c0 .5 2 5.5 4.5 11.1 2.5 5.7 5 11.2 5.4 12.3.5 1.1 1.6 3.6 2.4 5.5.9 1.9 3.9 8.9 6.7 15.5 2.9 6.6 6.1 13.9 7.1 16.2 1.1 2.3 1.9 4.4 1.9 4.7 0 .3-2.6 2.3-5.7 4.5-3.2 2.1-6.9 4.8-8.3 6-26.8 22.5-45.4 48.7-56.4 79.4-1.9 5.4-3.6 10.1-3.7 10.5-.1.4-.3 1.1-.4 1.7-.4 1.1-2.2 9.4-3.1 13.5-3.5 17.3-3.9 43.8-.9 62.5 3.3 21.1 14.2 50.1 24.9 66 1.4 2.2 3.2 4.9 3.9 5.9 7.2 11.1 28.7 33.9 37.9 40.1 16.2 11 21.5 14.3 27.8 17.5 8.1 4 24 10.5 28 11.5 1.4.3 6.6 1.6 11.7 2.9 9.8 2.7 15.6 3.6 24.4 4.1 3.1.1 6.1.5 6.5.7 1.2.7 22.6.2 28.4-.6 2.5-.3 6.3-.8 8.5-1.1 4.2-.5 5.5-.8 12.1-2.3l4.2-.9 2 4.6c1.2 2.5 5.1 11.6 8.7 20.1 3.7 8.5 7.3 16.8 8 18.5 5.3 11.9 9.5 22 9.7 23.3.3 1.4-5.4 3.7-11.2 4.6-1.4.2-3.2.6-4 .9-1.5.5-2.8.8-16 3.2-12.6 2.2-22.7 3-41 2.9-25.3-.1-44.3-2.6-65.9-8.9-21.4-6.1-48.5-17.5-59.4-24.9-2.1-1.4-4-2.6-4.3-2.6-.9 0-18.3-11.8-23.9-16.3-16.1-12.6-31-27.7-43.4-43.7-2.7-3.6-5.9-7.7-7.1-9.2-1.1-1.4-2-3.1-2-3.6 0-.6-.3-1.2-.8-1.4-.4-.2-2.3-2.8-4.2-5.8-10.3-16.1-20.6-37.8-26.3-55.5-3-9.6-7.4-25.8-8-30-.3-1.7-1-5.7-1.5-9-1.9-10.6-3.4-27.4-3.2-36 .1-9.8 1.1-30.2 1.4-32.5.3-1.4.7-4.3 1-6.5 1.4-9.4 1.9-11.6 4.6-23.1 3.3-13.7 9.4-31.8 13.9-41.6 1.7-3.6 3.1-7.1 3.1-7.7 0-.6.5-1.1 1-1.1.6 0 1-.6 1-1.4 0-3.4 18.9-34.2 27.2-44.3 1.8-2.2 4.8-6 6.7-8.3 4.2-5.1 21.2-22.1 27.2-27.2 2.4-2.1 5.8-4.9 7.4-6.3 5.7-4.8 29.7-20.5 30.6-19.9.5.3.9.9.9 1.5zm137.5 96.3c10 1 18.3 2.9 27.5 6.3 7.9 3 19.4 8.5 19.8 9.5.2.5.8.8 1.4.8.9 0 6.2 3.5 12.2 8 5.2 3.9 20.5 20.2 24 25.5 2.2 3.3 4.7 7.2 5.7 8.6 3.9 5.9 11.5 25.5 13.4 34.9 2 9.8 2.4 13.6 2.5 24.6.2 30.8-12.6 62-34.5 83.9-7.6 7.7-22.5 19.4-22.5 17.8 0-.5-.4-.3-.8.3-2 3.1-27.4 13.5-36.2 14.9-13.7 2.1-22 2.9-22 2.2 0-.6-.5-.6-1.2-.1s-2.4.8-3.8.7c-1.4-.1-5.5-.5-9.2-.8-5.5-.5-14-2-21.8-3.9-6-1.5-19-7.2-27.9-12.2-16.7-9.4-35-28.5-44.2-46.4-1.9-3.6-3.6-6.7-3.9-7-.3-.3-.6-1-.7-1.5-.1-.6-1.1-3.5-2.3-6.5-7-18.8-9-40-5.6-61.5 1.3-8.8 9.3-32.6 11.5-34.5.3-.3 1.3-1.9 2.1-3.5.8-1.7 1.8-3.2 2.1-3.5.3-.3 1.1-1.5 1.8-2.7 2.1-4.1 11.3-15.5 16.4-20.5 9.6-9.2 21.4-17.5 32.7-22.9 5.7-2.7 21-8 21-7.2 0 .3.7 0 1.5-.7s1.5-1 1.5-.7c0 .2 2.8-.1 6.2-.8 3.4-.8 6.6-1.2 6.9-.9.4.2 1.7.1 2.8-.4 2.3-.8 14.3-.8 23.6.2z"/></svg>