<?xml version="1.0" encoding="utf-8"?>
<!-- Generator: Adobe Illustrator 23.0.1, SVG Export Plug-In . SVG Version: 6.00 Build 0)  -->
<svg version="1.1" id="Layer_1" xmlns="http://www.w3.org/2000/svg" xmlns:xlink="http://www.w3.org/1999/xlink" x="0px" y="0px"
	 viewBox="0 0 400 400" style="enable-background:new 0 0 400 400;" xml:space="preserve">
<style type="text/css">
	.st0{display:none;}
	.st1{display:inline;fill:#FFEC80;}
	.st2{display:none;fill:#FFEC80;}
	.st3{fill:#FFEC80;}
</style>
<g class="st0">
	<path class="st1" d="M200,36.03c53.4,0,59.72,0.21,80.81,1.17c19.5,0.89,30.09,4.15,37.14,6.89c9.33,3.63,16,7.96,22.99,14.96
		c6.99,7,11.33,13.66,14.96,22.99c2.74,7.05,6,17.64,6.89,37.13c0.97,21.09,1.17,27.42,1.17,80.82s-0.2,59.73-1.17,80.81
		c-0.89,19.5-4.15,30.09-6.89,37.14c-3.63,9.34-7.97,16-14.96,22.99c-6.99,7-13.66,11.33-22.99,14.96c-7.05,2.74-17.65,6-37.14,6.9
		c-21.09,0.96-27.41,1.16-80.81,1.16s-59.73-0.2-80.81-1.16c-19.5-0.9-30.09-4.15-37.14-6.9c-9.33-3.63-16-7.96-22.99-14.96
		c-7-6.99-11.34-13.65-14.97-22.99c-2.73-7.05-5.99-17.64-6.88-37.14c-0.97-21.09-1.17-27.41-1.17-80.81s0.2-59.73,1.17-80.81
		c0.89-19.5,4.15-30.09,6.88-37.14c3.63-9.33,7.97-15.99,14.97-22.99c6.99-7,13.66-11.33,22.99-14.96c7.05-2.73,17.64-6,37.13-6.89
		C140.27,36.24,146.6,36.03,200,36.03 M200,0c-54.32,0-61.12,0.23-82.46,1.2C96.25,2.17,81.71,5.56,69,10.5
		c-13.16,5.11-24.31,11.95-35.43,23.07C22.45,44.69,15.61,55.84,10.5,68.99c-4.95,12.71-8.33,27.25-9.3,48.54
		C0.23,138.87,0,145.68,0,200c0,54.33,0.23,61.13,1.2,82.46c0.97,21.28,4.35,35.82,9.3,48.55c5.1,13.15,11.94,24.31,23.07,35.42
		C44.68,377.55,55.84,384.39,69,389.5c12.71,4.94,27.25,8.32,48.54,9.29c21.34,0.97,28.14,1.21,82.46,1.21
		c54.31,0,61.12-0.24,82.46-1.21c21.28-0.97,35.82-4.35,48.54-9.29c13.16-5.11,24.31-11.95,35.43-23.07
		c11.12-11.11,17.96-22.27,23.07-35.42c4.95-12.73,8.32-27.27,9.3-48.55c0.97-21.33,1.2-28.14,1.2-82.46
		c0-54.32-0.23-61.12-1.2-82.46c-0.97-21.29-4.35-35.83-9.3-48.54c-5.1-13.15-11.94-24.31-23.07-35.42
		C355.32,22.45,344.16,15.61,331,10.5c-12.72-4.94-27.26-8.32-48.54-9.3C261.12,0.23,254.31,0,200,0"/>
	<path class="st1" d="M200,97.29c-56.72,0-102.7,45.99-102.7,102.7c0,56.72,45.99,102.7,102.7,102.7S302.7,256.72,302.7,200
		C302.7,143.28,256.72,97.29,200,97.29 M200,266.66c-36.82,0-66.67-29.85-66.67-66.67s29.85-66.67,66.67-66.67
		s66.67,29.85,66.67,66.67S236.82,266.66,200,266.66"/>
	<path class="st1" d="M330.76,93.24c0,13.26-10.74,24-24,24c-13.26,0-24-10.74-24-24c0-13.26,10.74-24,24-24
		C320.02,69.24,330.76,79.98,330.76,93.24"/>
</g>
<path class="st2" d="M200.05,0.05c56.83,0,113.65,0.18,170.48-0.11c15.15-0.06,27.39,10.78,29.41,24.09
	c0.24,1.47,0.37,2.96,0.37,4.46c0.02,114.36,0.02,228.73,0.01,343.1c-0.01,15.17-12.06,27.72-27.17,28.37c-1,0.05-2.01,0.04-3,0.04
	c-113.39,0-226.79,0.01-340.2,0c-14.24,0-25-7.63-28.73-20.54c-0.79-2.7-1.21-5.63-1.21-8.45C-0.06,257.03-0.06,143.03-0.05,29.03
	c0-16.23,12.21-28.74,28.5-28.93c13.74-0.18,27.47-0.05,41.21-0.05H200.05z M213.45,174.5c0-6.85-0.16-13.72,0.07-20.59
	c0.12-3.48-1.07-4.45-4.48-4.42c-16.23,0.16-32.47,0.06-48.71,0.07c-4.97,0-4.99,0.01-4.99,4.9c0,60.8,0.03,121.59-0.08,182.4
	c0,3.82,1.19,4.91,4.91,4.87c16.86-0.15,33.72-0.06,50.57-0.07c5.01-0.01,5.02-0.02,5.02-4.91c0.01-30.59-0.08-61.17,0.06-91.76
	c0.03-6.33,0.45-12.73,1.56-18.95c2.32-12.94,8.27-23.38,22.12-26.82c4.17-1.03,8.64-1.23,12.96-1.18
	c14.26,0.17,23.19,6.86,26.32,20.72c1.74,7.7,2.42,15.76,2.49,23.68c0.27,31.46,0.17,62.92,0.04,94.38
	c-0.02,3.77,1.15,4.97,4.92,4.93c16.87-0.16,33.72-0.15,50.58,0c3.63,0.03,4.94-0.89,4.92-4.81c-0.15-36.45,0.28-72.91-0.3-109.35
	c-0.19-12.1-1.84-24.39-4.54-36.19c-4.86-21.24-17.22-36.75-38.94-42.84c-7.46-2.1-15.4-2.61-23.17-3.52
	c-13.13-1.54-25.51,1.11-37.13,7.36C227.79,157.69,220,165.27,213.45,174.5 M58.61,245.52c0,30.57,0.04,61.15-0.06,91.73
	c-0.01,3.09,0.65,4.49,4.08,4.47c17.48-0.12,34.95-0.11,52.43-0.01c3.15,0.02,4.03-1.19,4.02-4.21
	c-0.06-61.28-0.06-122.55,0.02-183.83c0.01-3.38-1.15-4.2-4.34-4.17c-17.22,0.14-34.46,0.17-51.68-0.02
	c-3.71-0.03-4.55,1.18-4.54,4.69C58.66,184.61,58.61,215.07,58.61,245.52 M88.77,123.91c19.32,0,34.8-15.33,34.83-34.48
	c0.02-19.42-15.44-35.01-34.73-35.02c-19.43,0-34.79,15.42-34.78,34.92C54.1,108.59,69.46,123.9,88.77,123.91"/>
<path class="st2" d="M0.2,0h400v400H0.2V0z M65.97,90.22c1.47,3.16,2.05,5.48,3.42,7.16c7.19,8.9,14.46,17.76,21.95,26.42
	c3.12,3.59,4.34,7.37,4.32,12.1c-0.12,38.46-0.18,76.91,0.05,115.38c0.04,6.08-1.65,10.82-5.54,15.34
	c-8.23,9.6-16.23,19.41-24.12,29.28c-1.41,1.75-1.91,4.24-3.05,6.91h81.86c-1.39-2.95-2.03-5.38-3.46-7.16
	c-8.25-10.25-16.63-20.39-25.09-30.47c-3.13-3.72-4.54-7.71-4.52-12.62c0.13-31.45,0.06-62.9,0.06-94.35v-5.31
	c1.7,1.3,2.49,2.73,3.16,4.2c21.56,47,43.12,94,64.6,141.05c1.45,3.18,2.77,5.26,6.93,5.18c4.11-0.08,4.58-2.69,5.62-5.35
	c18.48-47,36.98-94,55.49-140.99c0.63-1.61,1.43-3.14,2.77-6.06c0,41.56,0.06,81.55-0.13,121.54c-0.02,2.21-1.6,4.84-3.22,6.52
	c-5.79,6.04-12.03,11.65-17.86,17.65c-1.51,1.57-2.12,4-3.49,6.71h107.42c-1.55-2.85-2.27-5.22-3.8-6.82
	c-5.68-5.92-11.8-11.42-17.39-17.42c-1.67-1.79-3.01-4.7-3.02-7.1c-0.16-50.08-0.17-100.16,0-150.23c0.01-2.4,1.35-5.33,3.04-7.08
	c5.79-6.04,12.1-11.57,17.99-17.53c1.54-1.55,2.2-3.98,3.76-6.96h-6.13c-21.53,0-43.07,0.1-64.61-0.09c-3.64-0.03-5.27,1.1-6.62,4.5
	c-16.13,40.6-32.44,81.12-48.71,121.66c-0.64,1.61-1.39,3.17-2.42,5.53c-1.29-2.73-2.12-4.41-2.88-6.11
	c-18.42-40.37-36.87-80.72-55.15-121.15c-1.49-3.3-3.19-4.46-6.81-4.43c-21.02,0.19-42.05,0.09-63.07,0.09H65.97z"/>
<path class="st2" d="M-0.44,400h400V0h-400V400z M298.97,149.02c0.11,2.2,0.15,4.41,0.15,6.63c0,67.78-51.6,145.94-145.95,145.94
	c-28.96,0-55.92-8.49-78.62-23.04c4.02,0.47,8.1,0.71,12.23,0.71c24.03,0,46.15-8.2,63.7-21.95c-22.45-0.42-41.38-15.25-47.92-35.63
	c3.12,0.6,6.34,0.92,9.64,0.92c4.69,0,9.22-0.63,13.52-1.8c-23.46-4.7-41.14-25.44-41.14-50.28c0-0.23,0-0.44,0.01-0.66
	c6.92,3.85,14.81,6.16,23.23,6.42c-13.77-9.18-22.82-24.9-22.82-42.69c0-9.39,2.54-18.2,6.94-25.78
	c25.3,31.03,63.1,51.45,105.73,53.59c-0.88-3.75-1.33-7.67-1.33-11.69c0-28.31,22.97-51.28,51.3-51.28
	c14.74,0,28.08,6.23,37.43,16.2c11.68-2.3,22.66-6.58,32.57-12.45c-3.84,11.97-11.97,22.02-22.56,28.37
	c10.38-1.25,20.27-4,29.46-8.07C317.69,132.75,308.98,141.78,298.97,149.02"/>
<path class="st3" d="M400,200.12C400,89.6,310.4,0,199.88,0C89.35,0-0.24,89.6-0.24,200.12c0,99.89,73.18,182.68,168.86,197.7
	V257.97h-50.82v-57.85h50.82v-44.09c0-50.15,29.87-77.85,75.59-77.85c21.89,0,44.8,3.9,44.8,3.9v49.24h-25.23
	c-24.87,0-32.62,15.43-32.62,31.25v37.54h55.5l-8.87,57.85h-46.63v139.85C326.82,382.8,400,300.01,400,200.12"/>
</svg>
