<?xml version="1.0" encoding="utf-8"?>
<!-- Generator: Adobe Illustrator 23.0.1, SVG Export Plug-In . SVG Version: 6.00 Build 0)  -->
<svg version="1.1" id="Layer_1" xmlns="http://www.w3.org/2000/svg" xmlns:xlink="http://www.w3.org/1999/xlink" x="0px" y="0px"
	 viewBox="0 0 400 400" style="enable-background:new 0 0 400 400;" xml:space="preserve">
<style type="text/css">
	.st0{fill:#FFEC80;}
</style>
<path class="st0" d="M200,36.03c53.4,0,59.72,0.21,80.81,1.17c19.5,0.89,30.09,4.15,37.14,6.89c9.33,3.63,16,7.96,22.99,14.96
	c6.99,7,11.33,13.66,14.96,22.99c2.74,7.05,6,17.64,6.89,37.13c0.97,21.09,1.17,27.42,1.17,80.82s-0.2,59.73-1.17,80.81
	c-0.89,19.5-4.15,30.09-6.89,37.14c-3.63,9.34-7.97,16-14.96,22.99c-6.99,7-13.66,11.33-22.99,14.96c-7.05,2.74-17.65,6-37.14,6.9
	c-21.09,0.96-27.41,1.16-80.81,1.16s-59.73-0.2-80.81-1.16c-19.5-0.9-30.09-4.15-37.14-6.9c-9.33-3.63-16-7.96-22.99-14.96
	c-7-6.99-11.34-13.65-14.97-22.99c-2.73-7.05-5.99-17.64-6.88-37.14c-0.97-21.09-1.17-27.41-1.17-80.81s0.2-59.73,1.17-80.81
	c0.89-19.5,4.15-30.09,6.88-37.14c3.63-9.33,7.97-15.99,14.97-22.99c6.99-7,13.66-11.33,22.99-14.96c7.05-2.73,17.64-6,37.13-6.89
	C140.27,36.24,146.6,36.03,200,36.03 M200,0c-54.32,0-61.12,0.23-82.46,1.2C96.25,2.17,81.71,5.56,69,10.5
	c-13.16,5.11-24.31,11.95-35.43,23.07C22.45,44.69,15.61,55.84,10.5,68.99c-4.95,12.71-8.33,27.25-9.3,48.54
	C0.23,138.87,0,145.68,0,200c0,54.33,0.23,61.13,1.2,82.46c0.97,21.28,4.35,35.82,9.3,48.55c5.1,13.15,11.94,24.31,23.07,35.42
	C44.68,377.55,55.84,384.39,69,389.5c12.71,4.94,27.25,8.32,48.54,9.29c21.34,0.97,28.14,1.21,82.46,1.21
	c54.31,0,61.12-0.24,82.46-1.21c21.28-0.97,35.82-4.35,48.54-9.29c13.16-5.11,24.31-11.95,35.43-23.07
	c11.12-11.11,17.96-22.27,23.07-35.42c4.95-12.73,8.32-27.27,9.3-48.55c0.97-21.33,1.2-28.14,1.2-82.46
	c0-54.32-0.23-61.12-1.2-82.46c-0.97-21.29-4.35-35.83-9.3-48.54c-5.1-13.15-11.94-24.31-23.07-35.42
	C355.32,22.45,344.16,15.61,331,10.5c-12.72-4.94-27.26-8.32-48.54-9.3C261.12,0.23,254.31,0,200,0"/>
<path class="st0" d="M200,97.29c-56.72,0-102.7,45.99-102.7,102.7c0,56.72,45.99,102.7,102.7,102.7S302.7,256.72,302.7,200
	C302.7,143.28,256.72,97.29,200,97.29 M200,266.66c-36.82,0-66.67-29.85-66.67-66.67s29.85-66.67,66.67-66.67
	s66.67,29.85,66.67,66.67S236.82,266.66,200,266.66"/>
<path class="st0" d="M330.76,93.24c0,13.26-10.74,24-24,24c-13.26,0-24-10.74-24-24c0-13.26,10.74-24,24-24
	C320.02,69.24,330.76,79.98,330.76,93.24"/>
</svg>
