<?xml version="1.0" encoding="utf-8"?>
<!-- Generator: Adobe Illustrator 23.0.1, SVG Export Plug-In . SVG Version: 6.00 Build 0)  -->
<svg version="1.1" id="Layer_1" xmlns="http://www.w3.org/2000/svg" xmlns:xlink="http://www.w3.org/1999/xlink" x="0px" y="0px"
	 viewBox="0 0 820 360" style="enable-background:new 0 0 820 360;" xml:space="preserve">
<style type="text/css">
	.st0{fill:#FFEC80;}
</style>
<g>
	<path class="st0" d="M77.32,102.44c-18.72-0.02-36.54,6.6-47.67,17.71l-3.05,2.94l0.02-15.95H0V303.7h26.44l0.07-73.48l3.1,3.27
		c8,8.72,22.75,19.12,47.58,19.14c42.25,0.04,74.14-32.16,74.18-74.89C151.41,134.85,119.57,102.48,77.32,102.44 M77.78,229.12
		c-26.26-0.02-52.83-17.72-52.8-51.49c0.03-33.96,26.63-51.7,52.89-51.68c27.09,0.02,47.49,22.28,47.47,51.77
		C125.31,207.05,104.86,229.15,77.78,229.12"/>
	<rect x="204.6" y="107.15" class="st0" width="28.16" height="147.84"/>
	<polygon class="st0" points="366.88,204.22 321.61,107.15 293.74,107.15 362.37,249.3 370.74,249.3 439.67,107.15 411.78,107.15 	
		"/>
	<path class="st0" d="M677.27,147.11c-14.9-34.35-52.42-52.04-87.61-43.23l-22.68-52.29l-11.35,4.92
		c-32.23,13.98-57.08,39.67-69.99,72.35c-12.9,32.67-12.31,68.42,1.67,100.64c13.98,32.23,39.67,57.08,72.35,69.98
		c15.61,6.17,31.92,9.25,48.22,9.27c17.81,0.01,35.59-3.64,52.42-10.93l11.35-4.92l-22.68-52.29
		C679.45,220.94,692.17,181.45,677.27,147.11 M568.75,276.48c-26.53-10.47-47.39-30.65-58.74-56.82
		c-11.35-26.16-11.83-55.18-1.35-81.71c8.95-22.66,24.97-41.17,45.75-53.17l12.56,28.95c-30.48,19.67-43.2,59.16-28.3,93.51
		c12.33,28.43,40.16,45.45,69.34,45.48c6.07,0.01,12.2-0.73,18.27-2.25l12.56,28.95C615.87,286.38,591.4,285.43,568.75,276.48
		 M655.22,195.83c-4.98,12.62-14.59,22.55-27.03,27.94c-25.7,11.15-55.68-0.69-66.82-26.39c-11.15-25.7,0.69-55.68,26.39-66.82
		c6.58-2.85,13.44-4.2,20.19-4.2c19.62,0.02,38.34,11.47,46.63,30.59C659.97,169.4,660.2,183.21,655.22,195.83"/>
	<path class="st0" d="M218.42,51.61c-8.64-0.01-15.41,6.88-15.42,15.67c-0.01,8.64,6.75,15.41,15.39,15.42
		c8.8,0.01,15.69-6.75,15.7-15.39C234.1,58.36,227.36,51.61,218.42,51.61"/>
	<path class="st0" d="M801.69,227.62c-16.27,0-25.3-4.87-25.3-25.75V146.5v-16.86h38.42v-22.49h-38.42V84.78h-27.03l-0.01,22.37
		h-19.11v22.49h19.08l0.01,9.26l-0.01,7.6h0.01l0.03,58.35c0,34.16,18.98,46.64,46.1,46.64c11.93,0,21.57-2.48,24.54-4.24v-22.77
		C817.83,225.28,807.39,227.62,801.69,227.62"/>
</g>
</svg>
