<?xml version="1.0" encoding="utf-8"?>
<!-- Generator: Adobe Illustrator 23.0.1, SVG Export Plug-In . SVG Version: 6.00 Build 0)  -->
<svg version="1.1" id="Layer_1" xmlns="http://www.w3.org/2000/svg" xmlns:xlink="http://www.w3.org/1999/xlink" x="0px" y="0px"
	 viewBox="0 0 211.5 124.74" style="enable-background:new 0 0 211.5 124.74;" xml:space="preserve">
<style type="text/css">
	.st0{clip-path:url(#SVGID_2_);fill:#FFEC80;}
</style>
<g>
	<defs>
		<rect id="SVGID_1_" width="211.5" height="124.74"/>
	</defs>
	<clipPath id="SVGID_2_">
		<use xlink:href="#SVGID_1_"  style="overflow:visible;"/>
	</clipPath>
	<path class="st0" d="M24.65,4.44c6.58,0,7.36,0.03,9.96,0.14c2.4,0.11,3.71,0.51,4.58,0.85c1.15,0.45,1.97,0.98,2.83,1.84
		c0.86,0.86,1.4,1.68,1.84,2.83c0.34,0.87,0.74,2.17,0.85,4.58c0.12,2.6,0.14,3.38,0.14,9.96s-0.03,7.36-0.14,9.96
		c-0.11,2.4-0.51,3.71-0.85,4.58c-0.45,1.15-0.98,1.97-1.84,2.83c-0.86,0.86-1.68,1.4-2.83,1.84c-0.87,0.34-2.17,0.74-4.58,0.85
		c-2.6,0.12-3.38,0.14-9.96,0.14s-7.36-0.03-9.96-0.14c-2.4-0.11-3.71-0.51-4.58-0.85c-1.15-0.45-1.97-0.98-2.83-1.84
		c-0.86-0.86-1.4-1.68-1.85-2.83c-0.34-0.87-0.74-2.17-0.85-4.58c-0.12-2.6-0.14-3.38-0.14-9.96s0.02-7.36,0.14-9.96
		c0.11-2.4,0.51-3.71,0.85-4.58c0.45-1.15,0.98-1.97,1.85-2.83c0.86-0.86,1.68-1.4,2.83-1.84c0.87-0.34,2.17-0.74,4.58-0.85
		C17.29,4.47,18.07,4.44,24.65,4.44 M24.65,0c-6.7,0-7.53,0.03-10.16,0.15c-2.62,0.12-4.42,0.54-5.98,1.15
		c-1.62,0.63-3,1.47-4.37,2.84C2.77,5.51,1.92,6.88,1.29,8.5c-0.61,1.57-1.03,3.36-1.15,5.98C0.03,17.12,0,17.96,0,24.65
		c0,6.7,0.03,7.54,0.15,10.16c0.12,2.62,0.54,4.42,1.15,5.98c0.63,1.62,1.47,3,2.84,4.37c1.37,1.37,2.75,2.21,4.37,2.84
		c1.57,0.61,3.36,1.03,5.98,1.14c2.63,0.12,3.47,0.15,10.16,0.15c6.69,0,7.53-0.03,10.16-0.15c2.62-0.12,4.42-0.54,5.98-1.14
		c1.62-0.63,3-1.47,4.37-2.84c1.37-1.37,2.21-2.75,2.84-4.37c0.61-1.57,1.03-3.36,1.15-5.98c0.12-2.63,0.15-3.47,0.15-10.16
		c0-6.69-0.03-7.53-0.15-10.16c-0.12-2.62-0.54-4.42-1.15-5.98c-0.63-1.62-1.47-3-2.84-4.37c-1.37-1.37-2.75-2.21-4.37-2.84
		c-1.57-0.61-3.36-1.03-5.98-1.15C32.19,0.03,31.35,0,24.65,0"/>
	<path class="st0" d="M24.65,11.99c-6.99,0-12.66,5.67-12.66,12.66c0,6.99,5.67,12.66,12.66,12.66s12.66-5.67,12.66-12.66
		C37.31,17.66,31.64,11.99,24.65,11.99 M24.65,32.87c-4.54,0-8.22-3.68-8.22-8.22s3.68-8.22,8.22-8.22s8.22,3.68,8.22,8.22
		S29.19,32.87,24.65,32.87"/>
	<path class="st0" d="M40.77,11.49c0,1.63-1.32,2.96-2.96,2.96c-1.63,0-2.96-1.32-2.96-2.96c0-1.63,1.32-2.96,2.96-2.96
		C39.44,8.53,40.77,9.86,40.77,11.49"/>
	<path class="st0" d="M162.2,0h49.3v49.3h-49.3V0z M170.31,11.12c0.18,0.39,0.25,0.68,0.42,0.88c0.89,1.1,1.78,2.19,2.71,3.26
		c0.38,0.44,0.54,0.91,0.53,1.49c-0.01,4.74-0.02,9.48,0.01,14.22c0.01,0.75-0.2,1.33-0.68,1.89c-1.01,1.18-2,2.39-2.97,3.61
		c-0.17,0.22-0.24,0.52-0.38,0.85h10.09c-0.17-0.36-0.25-0.66-0.43-0.88c-1.02-1.26-2.05-2.51-3.09-3.76
		c-0.39-0.46-0.56-0.95-0.56-1.56c0.02-3.88,0.01-7.75,0.01-11.63v-0.65c0.21,0.16,0.31,0.34,0.39,0.52
		c2.66,5.79,5.32,11.59,7.96,17.39c0.18,0.39,0.34,0.65,0.85,0.64c0.51-0.01,0.56-0.33,0.69-0.66c2.28-5.79,4.56-11.59,6.84-17.38
		c0.08-0.2,0.18-0.39,0.34-0.75c0,5.12,0.01,10.05-0.02,14.98c0,0.27-0.2,0.6-0.4,0.8c-0.71,0.74-1.48,1.44-2.2,2.18
		c-0.19,0.19-0.26,0.49-0.43,0.83h13.24c-0.19-0.35-0.28-0.64-0.47-0.84c-0.7-0.73-1.45-1.41-2.14-2.15
		c-0.21-0.22-0.37-0.58-0.37-0.88c-0.02-6.17-0.02-12.35,0-18.52c0-0.3,0.17-0.66,0.38-0.87c0.71-0.75,1.49-1.43,2.22-2.16
		c0.19-0.19,0.27-0.49,0.46-0.86h-0.76c-2.65,0-5.31,0.01-7.96-0.01c-0.45,0-0.65,0.13-0.82,0.56c-1.99,5-4,10-6,14.99
		c-0.08,0.2-0.17,0.39-0.3,0.68c-0.16-0.34-0.26-0.54-0.35-0.75c-2.27-4.98-4.55-9.95-6.8-14.93c-0.18-0.41-0.39-0.55-0.84-0.55
		c-2.59,0.02-5.18,0.01-7.77,0.01H170.31z"/>
	<path class="st0" d="M0,124.74h49.3v-49.3H0V124.74z M36.9,93.8c0.01,0.27,0.02,0.54,0.02,0.82c0,8.35-6.36,17.99-17.99,17.99
		c-3.57,0-6.89-1.05-9.69-2.84c0.49,0.06,1,0.09,1.51,0.09c2.96,0,5.69-1.01,7.85-2.71c-2.77-0.05-5.1-1.88-5.91-4.39
		c0.39,0.07,0.78,0.11,1.19,0.11c0.58,0,1.14-0.08,1.67-0.22c-2.89-0.58-5.07-3.14-5.07-6.2c0-0.03,0-0.05,0-0.08
		c0.85,0.47,1.83,0.76,2.86,0.79c-1.7-1.13-2.81-3.07-2.81-5.26c0-1.16,0.31-2.24,0.86-3.18c3.12,3.83,7.78,6.34,13.03,6.61
		c-0.11-0.46-0.16-0.94-0.16-1.44c0-3.49,2.83-6.32,6.32-6.32c1.82,0,3.46,0.77,4.61,2c1.44-0.28,2.79-0.81,4.01-1.53
		c-0.47,1.48-1.47,2.71-2.78,3.5c1.28-0.15,2.5-0.49,3.63-1C39.21,91.8,38.14,92.91,36.9,93.8"/>
	<path class="st0" d="M130.73,100.24c0-13.61-11.04-24.65-24.65-24.65c-13.62,0-24.65,11.04-24.65,24.65
		c0,12.31,9.01,22.5,20.8,24.35v-17.23h-6.26v-7.13h6.26v-5.43c0-6.18,3.68-9.59,9.31-9.59c2.7,0,5.52,0.48,5.52,0.48v6.07h-3.11
		c-3.06,0-4.02,1.9-4.02,3.85v4.62h6.84l-1.09,7.13h-5.74v17.23C121.71,122.74,130.73,112.54,130.73,100.24"/>
	<path class="st0" d="M104.74,0.03c7,0,14,0.02,20.99-0.01c1.87-0.01,3.37,1.33,3.62,2.97c0.03,0.18,0.04,0.36,0.04,0.55
		c0,14.08,0,28.17,0,42.25c0,1.87-1.49,3.41-3.35,3.49c-0.12,0.01-0.25,0-0.37,0c-13.96,0-27.93,0-41.89,0
		c-1.75,0-3.08-0.94-3.54-2.53c-0.1-0.33-0.15-0.69-0.15-1.04C80.1,31.68,80.1,17.64,80.1,3.6c0-2,1.5-3.54,3.51-3.56
		c1.69-0.02,3.38-0.01,5.07-0.01H104.74z M106.39,21.51c0-0.84-0.02-1.69,0.01-2.54c0.01-0.43-0.13-0.55-0.55-0.54
		c-2,0.02-4,0.01-6,0.01c-0.61,0-0.61,0-0.61,0.6c0,7.49,0,14.97-0.01,22.46c0,0.47,0.15,0.61,0.61,0.6
		c2.08-0.02,4.15-0.01,6.23-0.01c0.62,0,0.62,0,0.62-0.61c0-3.77-0.01-7.53,0.01-11.3c0-0.78,0.06-1.57,0.19-2.33
		c0.29-1.59,1.02-2.88,2.72-3.3c0.51-0.13,1.06-0.15,1.6-0.14c1.76,0.02,2.86,0.84,3.24,2.55c0.21,0.95,0.3,1.94,0.31,2.92
		c0.03,3.87,0.02,7.75,0,11.62c0,0.46,0.14,0.61,0.61,0.61c2.08-0.02,4.15-0.02,6.23,0c0.45,0,0.61-0.11,0.61-0.59
		c-0.02-4.49,0.03-8.98-0.04-13.47c-0.02-1.49-0.23-3-0.56-4.46c-0.6-2.62-2.12-4.53-4.8-5.28c-0.92-0.26-1.9-0.32-2.85-0.43
		c-1.62-0.19-3.14,0.14-4.57,0.91C108.16,19.44,107.2,20.38,106.39,21.51 M87.32,30.26c0,3.76,0.01,7.53-0.01,11.3
		c0,0.38,0.08,0.55,0.5,0.55c2.15-0.01,4.3-0.01,6.46,0c0.39,0,0.5-0.15,0.49-0.52c-0.01-7.55-0.01-15.09,0-22.64
		c0-0.42-0.14-0.52-0.53-0.51c-2.12,0.02-4.24,0.02-6.36,0c-0.46,0-0.56,0.15-0.56,0.58C87.33,22.76,87.32,26.51,87.32,30.26
		 M91.04,15.28c2.38,0,4.29-1.89,4.29-4.25c0-2.39-1.9-4.31-4.28-4.31c-2.39,0-4.28,1.9-4.28,4.3
		C86.77,13.4,88.66,15.28,91.04,15.28"/>
</g>
</svg>
